<svg width="653" height="149" viewBox="0 0 653 149" fill="none" xmlns="http://www.w3.org/2000/svg">
<g clip-path="url(#clip0_6870_47102)">
<path d="M652.484 -0.475586H502.588V149.106H652.484V-0.475586Z" fill="white"/>
<path d="M52.4709 -0.704102H-97.5193V149.065H52.4709V-0.704102Z" fill="#FF5C35"/>
<path d="M-22.4747 149.07C18.9454 149.07 52.523 115.542 52.523 74.183C52.523 32.824 18.9454 -0.704102 -22.4747 -0.704102C-63.8948 -0.704102 -97.4724 32.824 -97.4724 74.183C-97.4724 115.542 -63.8948 149.07 -22.4747 149.07Z" fill="white"/>
<path d="M315.007 149.195V36.8672L202.513 36.8672V149.195H315.007Z" fill="#FF5C35"/>
<path d="M202.602 150.096C275.462 150.096 315.602 109.955 315.602 37.0957C242.742 37.0957 202.602 77.236 202.602 150.096Z" fill="#FFBC4B"/>
<path d="M202.513 -0.574219H127.516V74.3129H202.513V-0.574219Z" fill="#00A6BF"/>
<mask id="mask0_6870_47102" style="mask-type:luminance" maskUnits="userSpaceOnUse" x="127" y="-1" width="75" height="75">
<path d="M201.998 -1H127V74H201.998V-1Z" fill="white"/>
</mask>
<g mask="url(#mask0_6870_47102)">
<path d="M44.3594 78.1629C44.4896 34.7051 61.2449 -6.13195 91.567 -36.8718C121.884 -67.6117 162.152 -84.5967 205.009 -84.7322V78.1682H44.3594V78.1629Z" fill="#00A6BF"/>
<path d="M204.488 -84.2113V77.6418H44.8856C45.0158 56.0145 49.262 35.0385 57.5094 15.2712C65.6005 -4.12617 77.1875 -21.5489 91.9422 -36.5072C106.697 -51.4655 123.874 -63.2092 143.005 -71.4152C162.491 -79.7723 183.169 -84.0758 204.488 -84.2113ZM205.53 -85.2585C116.231 -85.2585 43.8384 -11.858 43.8384 78.6838H205.53V-85.2585Z" fill="white"/>
<path d="M47.5376 78.1629C47.6678 35.5648 64.0898 -4.45954 93.8127 -34.6002C123.53 -64.7305 163.001 -81.3821 205.009 -81.5176V78.1629H47.5376Z" fill="#00A6BF"/>
<path d="M204.488 -80.9915V77.6417H48.0586C48.1888 56.4521 52.3516 35.8929 60.4323 16.5215C68.3671 -2.49549 79.7197 -19.5691 94.1826 -34.2357C108.646 -48.9022 125.484 -60.4114 144.24 -68.4559C163.335 -76.6462 183.602 -80.8613 204.488 -80.9967M205.53 -82.0439C117.987 -82.0439 47.0166 -10.0866 47.0166 78.6786H205.53V-82.0439Z" fill="white"/>
<path d="M50.7104 78.1628C50.8459 36.4243 66.9344 -2.79768 96.0582 -32.3236C125.177 -61.8494 163.85 -78.1624 205.009 -78.2979V78.1628H50.7104Z" fill="#00A6BF"/>
<path d="M204.488 -77.7719V77.6467H51.2315C51.3617 56.8895 55.4411 36.7575 63.3551 17.7822C71.1284 -0.849289 82.2517 -17.5843 96.4281 -31.9539C110.599 -46.3234 127.099 -57.6034 145.475 -65.4811C164.179 -73.5048 184.029 -77.6364 204.488 -77.7719ZM205.53 -78.8191C119.738 -78.8191 50.1895 -8.29981 50.1895 78.6835H205.53V-78.8191Z" fill="white"/>
<path d="M53.8833 78.1626C54.0136 37.2838 69.779 -1.12533 98.3036 -30.0468C126.823 -58.9631 164.7 -74.9427 205.009 -75.0781V78.1678H53.8833V78.1626Z" fill="#00A6BF"/>
<path d="M204.488 -74.556V77.6427H54.4095C54.5398 57.3179 58.5358 37.6079 66.283 19.0286C73.8948 0.777428 84.7941 -15.6085 98.6735 -29.6811C112.553 -43.7537 128.714 -54.8044 146.71 -62.5206C165.023 -70.3723 184.456 -74.4206 204.488 -74.556ZM205.53 -75.6033C121.488 -75.6033 53.3623 -6.5272 53.3623 78.6847H205.53V-75.6033Z" fill="white"/>
<path d="M57.0562 78.1628C57.1916 38.1437 72.6236 0.542114 100.544 -27.7698C128.464 -56.0765 165.544 -71.7226 205.009 -71.8633V78.1628H57.0562Z" fill="#00A6BF"/>
<path d="M204.488 -71.337V77.6419H57.5825C57.7128 57.7548 61.6254 38.4616 69.206 20.2834C76.6562 2.41784 87.3263 -13.6242 100.919 -27.405C114.507 -41.1807 130.33 -51.9969 147.95 -59.5568C165.872 -67.2418 184.889 -71.2067 204.494 -71.3422M205.536 -72.3894C123.249 -72.3894 56.5405 -4.75652 56.5405 78.6787H205.536V-72.3894Z" fill="white"/>
<path d="M60.229 78.163C60.3593 39.0035 75.463 2.20953 102.789 -25.498C130.111 -53.2004 166.393 -68.513 205.009 -68.6484V78.1578H60.2342L60.229 78.163Z" fill="#00A6BF"/>
<path d="M204.488 -68.1166V77.6476H60.7552C60.8855 58.1929 64.7148 39.3218 72.1286 21.5396C79.4226 4.05952 89.8634 -11.6439 103.159 -25.1277C116.455 -38.6116 131.939 -49.1933 149.179 -56.5865C166.711 -64.1048 185.31 -67.9811 204.488 -68.1166ZM205.53 -69.1638C124.994 -69.1638 59.708 -2.96896 59.708 78.6844H205.53V-69.1638Z" fill="white"/>
<path d="M63.4072 78.1626C63.5375 39.8628 78.313 3.87639 105.035 -23.2216C131.757 -50.3143 167.242 -65.2883 205.009 -65.429V78.1626H63.4072Z" fill="#00A6BF"/>
<path d="M204.488 -64.903V77.6414H63.9282C64.0585 58.6243 67.7993 40.17 75.0568 22.789C82.1893 5.68929 92.4009 -9.66499 105.405 -22.8519C118.409 -36.0387 133.554 -46.3913 150.414 -53.623C167.55 -60.9745 185.738 -64.7675 204.488 -64.903ZM205.53 -65.9502C126.75 -65.9502 62.8862 -1.19854 62.8862 78.6834H205.53V-65.9502Z" fill="white"/>
<path d="M66.5801 78.1634C66.7155 40.7233 81.1576 5.54446 107.28 -20.9439C133.403 -47.4271 168.091 -62.0676 205.009 -62.2083V78.1634H66.5801Z" fill="#00A6BF"/>
<path d="M204.488 -61.6832V77.6412H67.1011C67.2313 59.0566 70.8887 41.0296 77.9795 24.0393C84.9505 7.32516 94.9328 -7.69049 107.65 -20.5804C120.363 -33.4703 135.169 -43.5936 151.654 -50.6586C168.399 -57.8381 186.17 -61.5478 204.488 -61.6832ZM205.53 -62.7305C128.501 -62.7305 66.0591 0.583202 66.0591 78.6833H205.53V-62.7305Z" fill="white"/>
<path d="M69.7528 78.163C69.883 41.5826 83.9969 7.21131 109.521 -18.6675C135.044 -44.5463 168.935 -58.8533 205.004 -58.9888V78.163H69.7476H69.7528Z" fill="#00A6BF"/>
<path d="M204.488 -58.4623V77.6475H70.2791C70.4094 59.4954 73.9835 41.8903 80.9075 25.296C87.7222 8.96219 97.4753 -5.70436 109.896 -18.3025C122.317 -30.8954 136.785 -40.7843 152.889 -47.6929C169.243 -54.7058 186.602 -58.3268 204.488 -58.4623ZM205.53 -59.5095C130.256 -59.5095 69.2319 2.36092 69.2319 78.6843H205.53V-59.5095Z" fill="white"/>
<path d="M72.9258 78.1625C73.056 42.4418 86.8417 8.87801 111.766 -16.3964C136.691 -41.6656 169.785 -55.6392 205.009 -55.7747V78.1625H72.9258Z" fill="#00A6BF"/>
<path d="M204.488 -55.2477V77.6422H73.452C73.5822 59.9277 77.073 42.7395 83.8303 26.5464C90.4835 10.5981 100.007 -3.72456 112.141 -16.0257C124.27 -28.3269 138.4 -37.9813 154.123 -44.7284C170.087 -51.5745 187.03 -55.1122 204.488 -55.2477ZM205.53 -56.2949C132.007 -56.2949 72.4048 4.13752 72.4048 78.6843H205.53V-56.2949Z" fill="white"/>
<path d="M76.0986 78.1633C76.2289 43.3023 89.681 10.5461 114.012 -14.1187C138.337 -38.7783 170.634 -52.4185 205.009 -52.554V78.1633H76.1038H76.0986Z" fill="#00A6BF"/>
<path d="M204.488 -52.0282V77.6418H76.6248C76.755 60.3598 80.1624 43.5988 86.753 27.7964C93.2447 12.2285 102.545 -1.75031 114.382 -13.7545C126.219 -25.7587 140.004 -35.1838 155.358 -41.7642C170.931 -48.4436 187.457 -51.8927 204.488 -52.0282ZM205.53 -53.0754C133.763 -53.0754 75.5776 5.9138 75.5776 78.6839H205.53V-53.0754Z" fill="white"/>
<path d="M79.2769 78.1622C79.4071 44.1608 92.531 12.2122 116.257 -11.843C139.984 -35.8983 171.483 -49.1997 205.009 -49.3352V78.1622H79.2769Z" fill="#00A6BF"/>
<path d="M204.488 -48.8082V77.6472H79.7979C79.9281 60.8028 83.2521 44.4585 89.676 29.0574C96.0113 13.875 105.077 0.240055 116.627 -11.4723C128.173 -23.1795 141.62 -32.3754 156.593 -38.7943C171.775 -45.307 187.884 -48.6728 204.488 -48.8082ZM205.53 -49.8555C135.513 -49.8555 78.7559 7.69576 78.7559 78.684H205.53V-49.8555Z" fill="white"/>
<path d="M82.4497 78.1621C82.58 45.0203 95.3704 13.8793 118.503 -9.56631C141.625 -33.012 172.332 -45.98 205.009 -46.1155V78.1673H82.4497V78.1621Z" fill="#00A6BF"/>
<path d="M204.488 -45.5934V77.6422H82.9706C83.1008 61.2302 86.3414 45.308 92.5986 30.3028C98.7724 15.5008 107.609 2.20968 118.867 -9.20053C130.126 -20.616 143.229 -29.5722 157.822 -35.8348C172.614 -42.1755 188.306 -45.4579 204.483 -45.5934M205.525 -46.6406C137.259 -46.6406 81.9233 9.46741 81.9233 78.6842H205.525V-46.6406Z" fill="white"/>
<path d="M85.6226 78.1632C85.758 45.8812 98.2151 15.5477 120.743 -7.29352C143.266 -30.1296 173.176 -42.7642 205.009 -42.8997V78.1632H85.6226Z" fill="#00A6BF"/>
<path d="M204.488 -42.3739V77.6418H86.1484C86.2787 61.6623 89.4359 46.1621 95.5264 31.5581C101.539 17.1416 110.151 4.19436 121.118 -6.92409C132.085 -18.0425 144.849 -26.7695 159.067 -32.8654C173.468 -39.0394 188.743 -42.2384 204.493 -42.3739M205.535 -43.4211C139.025 -43.4211 85.1064 11.2489 85.1064 78.6838H205.535V-43.4211Z" fill="white"/>
<path d="M88.7954 78.1628C88.9257 46.7405 101.06 17.2198 122.989 -5.01709C144.912 -27.2488 174.026 -39.5447 205.009 -39.6802V78.1628H88.7954Z" fill="#00A6BF"/>
<path d="M204.488 -39.1532V77.6478H89.3216C89.4518 62.1059 92.5205 47.0278 98.4495 32.8145C104.305 18.7836 112.683 6.18028 123.358 -4.6464C134.034 -15.4679 146.46 -23.9656 160.297 -29.9C174.307 -35.9073 189.166 -39.0177 204.488 -39.1532ZM205.53 -40.2004C140.77 -40.2004 88.2744 13.0264 88.2744 78.6846H205.53V-40.2004Z" fill="white"/>
<path d="M91.9683 78.1629C92.1037 47.6002 103.904 18.8872 125.229 -2.74015C146.553 -24.3623 174.87 -36.3247 205.004 -36.4602V78.1682H91.9683V78.1629Z" fill="#00A6BF"/>
<path d="M204.488 -35.9344V77.6467H92.4943C92.6246 62.5373 95.6098 47.8811 101.372 34.0638C107.067 20.4133 115.22 8.1538 125.599 -2.37069C135.982 -12.8952 148.069 -21.1637 161.532 -26.9313C175.151 -32.7719 189.593 -35.799 204.483 -35.9344M205.525 -36.9817C142.521 -36.9817 91.4419 14.8071 91.4419 78.6887H205.525V-36.9817Z" fill="white"/>
<path d="M95.1465 78.1627C95.4226 16.8601 144.553 -32.9593 205.009 -33.2458V78.1627H95.1465Z" fill="#00A6BF"/>
<path d="M204.488 -32.7196V77.6416H95.667C95.7972 62.9647 98.6992 48.7306 104.3 35.3144C109.833 22.0494 117.757 10.1338 127.849 -0.0988998C137.941 -10.3316 149.689 -18.3605 162.772 -23.9718C175.995 -29.6456 190.025 -32.5841 204.488 -32.7196ZM205.53 -33.7668C144.276 -33.7668 94.625 16.5788 94.625 78.6837H205.53V-33.7668Z" fill="white"/>
<path d="M98.3193 78.1625C98.5955 18.6314 146.298 -29.7448 205.009 -30.0261V78.1625H98.3193Z" fill="#00A6BF"/>
<path d="M204.488 -29.4996V77.647H98.8451C98.9753 63.4076 101.794 49.5904 107.228 36.5702C112.605 23.6855 120.295 12.1138 130.095 2.17804C139.895 -7.75771 151.304 -15.5573 164.006 -21.0071C176.839 -26.509 190.452 -29.3694 204.488 -29.4996ZM205.53 -30.5469C146.032 -30.5469 97.7979 18.3607 97.7979 78.6838H205.53V-30.5469Z" fill="white"/>
<path d="M101.492 78.1629C101.768 20.4085 148.054 -26.5193 205.009 -26.811V78.1629H101.492Z" fill="#00A6BF"/>
<path d="M204.488 -26.2795V77.6472H102.018C102.148 63.8403 104.884 50.4503 110.151 37.8261C115.366 25.327 122.832 14.0991 132.34 4.46034C141.848 -5.17842 152.92 -12.7488 165.246 -18.0318C177.688 -23.367 190.89 -26.1388 204.493 -26.2743M205.535 -27.3215C147.788 -27.3215 100.976 20.1429 100.976 78.6945H205.535V-27.3215Z" fill="white"/>
<path d="M104.665 78.1631C104.941 22.18 149.799 -23.3045 205.009 -23.5911V78.1631H104.665Z" fill="#00A6BF"/>
<path d="M204.488 -23.0648V77.642H105.191C105.322 64.2728 107.973 51.2996 113.074 39.0714C118.128 26.9526 125.364 16.0738 134.581 6.72678C143.797 -2.61501 154.53 -9.95088 166.476 -15.0777C178.527 -20.2461 191.312 -22.9346 204.488 -23.0648ZM205.53 -24.1121C149.539 -24.1121 104.144 21.9091 104.144 78.6841H205.53V-24.1121Z" fill="white"/>
<path d="M107.838 78.1627C108.114 23.9563 151.55 -20.085 205.004 -20.3716V78.1627H107.838Z" fill="#00A6BF"/>
<path d="M204.488 -19.8452V77.6418H108.364C108.494 64.705 111.063 52.1538 115.997 40.3216C120.894 28.5883 127.902 18.0482 136.826 8.99816C145.751 -0.0518608 156.145 -7.15327 167.711 -12.1185C179.371 -17.1203 191.739 -19.7201 204.488 -19.8556M205.53 -20.9028C151.289 -20.9028 107.317 23.6804 107.317 78.6734H205.53V-20.9028Z" fill="white"/>
<path d="M111.016 78.1626C111.292 25.7329 153.305 -16.8704 205.009 -17.157V78.1626H111.016Z" fill="#00A6BF"/>
<path d="M204.488 -16.6252V77.6471H111.537C111.667 65.1428 114.147 53.0188 118.92 41.5825C123.656 30.2296 130.434 20.0386 139.067 11.2855C147.7 2.5325 157.75 -4.33969 168.946 -9.13823C180.215 -13.9732 192.167 -16.4845 204.488 -16.62M205.53 -17.6672C153.045 -17.6672 110.495 25.4728 110.495 78.6944H205.53V-17.6672Z" fill="white"/>
<path d="M114.189 78.1624C114.465 27.5094 155.056 -13.6507 205.009 -13.9373V78.1624H114.189Z" fill="#00A6BF"/>
<path d="M204.488 -13.4103V77.6422H114.715C114.975 53.4254 124.4 30.704 141.317 13.5522C158.223 -3.58916 180.626 -13.1393 204.493 -13.4103M205.535 -14.4575C154.8 -14.4575 113.673 27.2444 113.673 78.6842H205.535V-14.4575Z" fill="white"/>
<path d="M117.362 78.1633C117.638 29.2817 156.807 -10.43 205.009 -10.7166V78.1633H117.362Z" fill="#00A6BF"/>
<path d="M204.488 -10.1905V77.642H117.888C118.149 54.2902 127.245 32.3711 143.558 15.8289C159.865 -0.708086 181.465 -9.92483 204.488 -10.1905ZM205.53 -11.2378C156.546 -11.2378 116.841 29.021 116.841 78.6841H205.53V-11.2378Z" fill="white"/>
<path d="M120.535 78.1625C120.811 31.0576 158.552 -7.21613 205.009 -7.50269V78.1625H120.535Z" fill="#00A6BF"/>
<path d="M204.488 -6.97082V77.6471H121.061C121.321 55.1549 130.085 34.0434 145.803 18.1108C161.511 2.18341 182.315 -6.69989 204.488 -6.97082ZM205.53 -8.01807C158.302 -8.01807 120.014 30.8027 120.014 78.6891H205.53V-8.01807Z" fill="white"/>
<path d="M123.713 78.1633C123.989 32.8299 160.303 -3.99542 205.01 -4.28198V78.1633H123.713Z" fill="#00A6BF"/>
<path d="M204.488 -3.75598V77.6421H124.234C124.494 56.0096 132.929 35.7057 148.043 20.3826C163.152 5.0648 183.158 -3.48505 204.483 -3.75598M205.525 -4.80322C160.047 -4.80322 123.181 32.5743 123.181 78.6841H205.525V-4.80322Z" fill="white"/>
<path d="M126.886 78.163C127.162 34.6061 162.058 -0.775942 205.009 -1.0625V78.163H126.886Z" fill="#00A6BF"/>
<path d="M204.488 -0.53644V77.6418H127.412C127.672 56.8637 135.774 37.3726 150.294 22.6539C164.804 7.94047 184.013 -0.270728 204.493 -0.541655M205.535 -1.58887C161.813 -1.58887 126.37 34.3507 126.37 78.6786H205.535V-1.58887Z" fill="white"/>
<path d="M130.059 78.1621C130.335 36.3768 163.798 2.43793 205.009 2.15137V78.1621H130.059Z" fill="#00A6BF"/>
<path d="M204.488 2.6832V77.6468H130.584C130.845 57.7284 138.618 39.05 152.534 24.9357C166.445 10.8319 184.857 2.95413 204.488 2.6832ZM205.53 1.63599C163.558 1.63599 129.537 36.1323 129.537 78.6888H205.53V1.63599Z" fill="white"/>
<path d="M133.231 78.163C133.508 38.1491 165.549 5.65342 205.009 5.37207V78.163H133.231Z" fill="#00A6BF"/>
<path d="M204.488 5.9032V77.6469H133.758C134.018 58.5882 141.463 40.7174 154.78 27.2127C168.091 13.7184 185.706 6.17413 204.488 5.9032ZM205.53 4.85596C165.315 4.85596 132.71 37.9143 132.71 78.6889H205.53V4.85596Z" fill="white"/>
<path d="M136.404 78.1628C136.68 39.9308 167.305 8.87314 205.009 8.5918V78.1628H136.404Z" fill="#00A6BF"/>
<path d="M204.488 9.11878V77.6426H136.93C137.191 59.4435 144.302 42.3803 157.02 29.4852C169.732 16.5953 186.55 9.3897 204.483 9.11878M205.525 8.07153C167.06 8.07153 135.878 39.6867 135.878 78.6846H205.525V8.07153Z" fill="white"/>
<path d="M139.583 78.1629C139.859 41.7023 169.055 12.0931 205.009 11.8118V78.1629H139.583Z" fill="#00A6BF"/>
<path d="M204.488 12.3379V77.6418H140.109C140.369 60.3024 147.152 44.0468 159.271 31.7561C171.384 19.4758 187.405 12.6036 204.488 12.3326M205.53 11.2854C168.821 11.2854 139.056 41.4625 139.056 78.6838H205.53V11.2854Z" fill="white"/>
<path d="M142.755 78.1629C143.032 43.4737 170.801 15.3077 205.009 15.0264V78.1629H142.755Z" fill="#00A6BF"/>
<path d="M204.488 15.5576V77.6469H143.282C143.542 61.1672 149.992 45.7191 161.511 34.038C173.025 22.3673 188.249 15.8285 204.488 15.5576ZM205.53 14.5051C170.571 14.5051 142.234 43.2391 142.234 78.6837H205.53V14.5051Z" fill="white"/>
<path d="M145.928 78.1628C146.204 45.2503 172.551 18.5274 205.009 18.2461V78.1628H145.928Z" fill="#00A6BF"/>
<path d="M204.488 18.778V77.6475H146.454C146.715 62.0274 152.837 47.387 163.757 36.3154C174.672 25.2491 189.098 19.049 204.488 18.778ZM205.53 17.7256C172.327 17.7256 145.407 45.0215 145.407 78.6895H205.53V17.7256Z" fill="white"/>
<path d="M149.101 78.1639C149.377 47.0281 174.302 21.7485 205.009 21.4619V78.1639H149.101Z" fill="#00A6BF"/>
<path d="M204.488 21.9921V77.6417H149.632C149.893 62.8813 155.681 49.0484 166.002 38.5865C176.313 28.1297 189.947 22.2631 204.488 21.9921ZM205.53 20.9397C174.078 20.9397 148.58 46.7924 148.58 78.6837H205.53V20.9397Z" fill="white"/>
<path d="M152.274 78.1635C152.55 48.7991 176.052 24.9627 205.004 24.6814V78.1635H152.274Z" fill="#00A6BF"/>
<path d="M204.488 25.2119V77.6415H152.805C153.347 48.9805 176.229 25.7694 204.488 25.2119ZM205.53 24.1594C175.828 24.1594 151.753 48.5689 151.753 78.6836H205.53V24.1594Z" fill="white"/>
<path d="M155.452 78.1624C155.728 50.5747 177.808 28.1815 205.01 27.9001V78.1624H155.452Z" fill="#00A6BF"/>
<path d="M204.488 28.4323V77.6473H155.978C156.52 50.763 177.98 28.995 204.488 28.4323ZM205.53 27.3799C177.584 27.3799 154.926 50.3514 154.926 78.6894H205.53V27.3799Z" fill="white"/>
<path d="M158.625 78.1632C158.901 52.3522 179.554 31.4022 205.01 31.1208V78.1632H158.625Z" fill="#00A6BF"/>
<path d="M204.488 31.6521V77.6472H159.156C159.698 52.5343 179.735 32.2096 204.488 31.6521ZM205.53 30.5996C179.334 30.5996 158.104 52.1279 158.104 78.6892H205.53V30.5996Z" fill="white"/>
<path d="M161.798 78.1624C162.069 54.1228 181.304 34.6161 205.009 34.3347V78.1624H161.798Z" fill="#00A6BF"/>
<path d="M204.488 34.8718V77.6471H162.329C162.871 54.3108 181.481 35.4241 204.488 34.8718ZM205.53 33.8193C181.09 33.8193 161.277 53.9096 161.277 78.6891H205.53V33.8193Z" fill="white"/>
<path d="M164.971 78.1623C165.247 55.8993 183.049 37.8358 205.009 37.5544V78.1623H164.971Z" fill="#00A6BF"/>
<path d="M204.488 38.086V77.6414H165.502C166.038 56.0766 183.231 38.6382 204.488 38.086ZM205.53 37.0283C182.84 37.0283 164.449 55.6754 164.449 78.6834H205.53V37.0283Z" fill="white"/>
<path d="M168.148 78.1634C168.419 57.6719 184.805 41.0567 205.009 40.7754V78.1634H168.148Z" fill="#00A6BF"/>
<path d="M204.488 41.3054V77.641H168.68C169.216 57.8529 184.982 41.8577 204.488 41.3054ZM205.53 40.2478C184.596 40.2478 167.622 57.4569 167.622 78.683H205.53V40.2478Z" fill="white"/>
<path d="M171.321 78.1631C171.592 59.4482 186.555 44.2711 205.009 43.9897V78.1631H171.321Z" fill="#00A6BF"/>
<path d="M204.488 44.5261V77.6418H171.853C172.389 59.6304 186.732 45.0732 204.488 44.5261ZM205.53 43.4685C186.347 43.4685 170.795 59.2344 170.795 78.6838H205.53V43.4685Z" fill="white"/>
<path d="M174.495 78.1629C174.766 61.2195 188.306 47.4908 205.009 47.2095V78.1629H174.495Z" fill="#00A6BF"/>
<path d="M204.488 47.7462V77.6419H175.031C175.563 61.4019 188.483 48.2932 204.488 47.7462ZM205.53 46.6885C188.103 46.6885 173.974 61.0164 173.974 78.6892H205.53V46.6885Z" fill="white"/>
<path d="M177.667 78.1628C177.938 62.9961 190.052 50.7105 205.004 50.4292V78.1628H177.667Z" fill="#00A6BF"/>
<path d="M204.488 50.966V77.6419H178.204C178.736 63.1785 190.234 51.5078 204.488 50.966ZM205.53 49.9031C189.854 49.9031 177.146 62.7878 177.146 78.6839H205.53V49.9031Z" fill="white"/>
<path d="M180.845 78.1626C181.116 64.7674 191.807 53.9251 205.009 53.6489V78.1626H180.845Z" fill="#00A6BF"/>
<path d="M204.488 54.1859V77.642H181.382C181.908 64.9553 191.985 54.7278 204.488 54.1859ZM205.53 53.123C191.604 53.123 180.319 64.5697 180.319 78.684H205.53V53.123Z" fill="white"/>
<path d="M184.018 78.1638C184.289 66.5452 193.552 57.1461 205.009 56.8647V78.1638H184.018Z" fill="#00A6BF"/>
<path d="M204.488 57.4106V77.6468H184.56C185.081 66.7315 193.735 57.9472 204.488 57.4106ZM205.53 56.3425C193.359 56.3425 183.492 66.346 183.492 78.6888H205.53V56.3425Z" fill="white"/>
<path d="M187.196 78.1627C187.462 68.3207 195.308 60.3596 205.009 60.0835V78.1627H187.196Z" fill="#00A6BF"/>
<path d="M204.488 60.6314V77.6425H187.738C188.254 68.5039 195.486 61.1576 204.488 60.6314ZM205.53 59.5581C195.11 59.5581 186.665 68.1236 186.665 78.6845H205.53V59.5581Z" fill="white"/>
<path d="M190.369 78.1635C190.635 70.093 197.054 63.5803 205.009 63.3042V78.1635H190.369Z" fill="#00A6BF"/>
<path d="M204.488 63.8554V77.6414H190.916C191.421 70.2794 197.231 64.3712 204.488 63.8554ZM205.53 62.7769C196.866 62.7769 189.843 69.8991 189.843 78.6834H205.53V62.7769Z" fill="white"/>
<path d="M193.547 78.1628C193.808 71.8689 198.809 66.7943 205.009 66.5286V78.1628H193.547Z" fill="#00A6BF"/>
<path d="M204.488 67.0865V77.6474H194.099C194.589 72.0569 198.981 67.5919 204.488 67.0865ZM205.53 65.9976C198.616 65.9976 193.016 71.6766 193.016 78.6895H205.53V65.9976Z" fill="white"/>
<path d="M196.725 78.1624C196.98 73.6452 200.56 70.0138 205.009 69.748V78.1624H196.725Z" fill="#00A6BF"/>
<path d="M204.488 70.3212V77.6414H197.293C197.757 73.8276 200.737 70.8005 204.488 70.3212ZM205.53 69.2114C200.372 69.2114 196.188 73.4525 196.188 78.6835H205.53V69.2114Z" fill="white"/>
<path d="M199.903 78.1632C200.148 75.4174 202.305 73.2292 205.009 72.9739V78.1632H199.903Z" fill="#00A6BF"/>
<path d="M204.488 73.5826V77.6465H200.508C200.914 75.6146 202.493 74.0046 204.488 73.5826ZM205.53 72.4312C202.123 72.4312 199.362 75.229 199.362 78.6833H205.53V72.4312Z" fill="white"/>
</g>
<path d="M127 37V0L52 0V37L127 37Z" fill="#B7ECEC"/>
<path d="M127 74V36L52 36V74H127Z" fill="#00C0A3"/>
<path d="M165 111.5H202.5V74H165V111.5Z" fill="#F62D71"/>
<path d="M165 86.5V74C175.014 74 184.433 77.9027 191.514 84.9837C198.594 92.0648 202.496 101.485 202.496 111.5H189.997C189.997 97.713 178.786 86.5 165 86.5Z" fill="#FF864A"/>
<path d="M315.002 -0.568855V36.9258H352.498V-0.568855H315.002Z" fill="#FFBC4B"/>
<path d="M315.002 24.4222V36.9204C325.016 36.9204 334.435 33.0183 341.516 25.9382C348.596 18.8582 352.498 9.43894 352.498 -0.574219H339.999C339.999 13.2108 328.788 24.4222 315.002 24.4222Z" fill="#FF864A"/>
<path d="M315.002 -0.574219H202.508V36.9258H315.002V-0.574219Z" fill="black"/>
<path d="M352.504 74.2539V111.754H390V74.2539H352.504Z" fill="#F62D71"/>
<path d="M427.502 -0.574219H352.504V74.4258H427.502V-0.574219Z" fill="#00A6BF"/>
<path d="M502.494 -0.574219H427.496V74.4258H502.494V-0.574219Z" fill="black"/>
<path d="M502.494 74.4258C502.494 115.846 536.072 149.426 577.492 149.426C618.911 149.426 652.49 115.846 652.49 74.4258C652.49 33.0051 618.911 -0.574219 577.492 -0.574219H502.494V74.4258Z" fill="#FF5C35"/>
<path d="M390 74.3129V111.754H427.496V74.3129H390Z" fill="white"/>
<path d="M427.496 149.254V111.754H390V149.254H427.496Z" fill="#F62D71"/>
<path d="M390 149.195V111.754H352.504V149.195H390Z" fill="white"/>
<path d="M315.002 36.8716V74.3711H352.498V36.8716H315.002Z" fill="#FFBC4B"/>
<path d="M315.002 61.8717V74.3716C325.016 74.3716 334.435 70.469 341.516 63.388C348.596 56.307 352.498 46.8865 352.498 36.8721H339.999C339.999 50.6589 328.788 61.8717 315.002 61.8717Z" fill="#FF864A"/>
<path d="M315.007 74.3121V111.812H352.504V74.3121H315.007Z" fill="white"/>
<path d="M315.002 99.3122V111.812C325.016 111.812 334.435 107.909 341.516 100.828C348.596 93.7474 352.498 84.327 352.498 74.3125H339.999C339.999 88.0993 328.788 99.3122 315.002 99.3122Z" fill="#00A6BF"/>
<path d="M315.002 111.758V149.253H352.498V111.758H315.002Z" fill="white"/>
<path d="M315.002 136.749V149.248C325.016 149.248 334.435 145.345 341.516 138.265C348.596 131.185 352.498 121.766 352.498 111.753H339.999C339.999 125.538 328.788 136.749 315.002 136.749Z" fill="#00A6BF"/>
<path d="M165 111V149H203V111H165Z" fill="#F62D71"/>
<path d="M190 111H202.5C202.5 121.015 198.597 130.435 191.516 137.516C184.435 144.597 175.015 148.5 165 148.5V136C178.787 136 190 124.787 190 111Z" fill="#FF864A"/>
<path d="M165 111H127V149H165V111Z" fill="#F62D71"/>
<path d="M165.5 136V148.5C155.485 148.5 146.065 144.597 138.984 137.516C131.903 130.435 128 121.015 128 111H140.5C140.5 124.787 151.713 136 165.5 136Z" fill="#FF864A"/>
<path d="M165 111V74H128V111H165Z" fill="#F62D71"/>
<path d="M140.5 111.5H128C128 101.485 131.903 92.0648 138.984 84.9837C146.065 77.9027 155.485 74 165.5 74V86.5C151.713 86.5 140.5 97.713 140.5 111.5Z" fill="#FF864A"/>
<path d="M87 112H128V74H87V112Z" fill="#F62D71"/>
<path d="M90.0195 86.7928V74.3125C100.033 74.3125 109.453 78.209 116.533 85.279C123.614 92.3489 127.516 101.755 127.516 111.753H115.017C115.017 97.9882 103.805 86.7928 90.0195 86.7928Z" fill="#FF864A"/>
<path d="M90 112V149.441H127.496V112H90Z" fill="#F62D71"/>
<path d="M115.017 111.753H127.516C127.516 121.752 123.614 131.158 116.533 138.227C109.453 145.297 100.033 149.194 90.0195 149.194V136.714C103.805 136.714 115.017 125.518 115.017 111.753Z" fill="#FF864A"/>
<path d="M90 111H52V149H90V111Z" fill="#F62D71"/>
<path d="M90.0197 136.715V149.195C80.0062 149.195 70.5865 145.298 63.5061 138.228C56.4258 131.158 52.5234 121.753 52.5234 111.754H65.0223C65.0223 125.519 76.2341 136.715 90.0197 136.715Z" fill="#FF864A"/>
<path d="M89.4961 111.441V74H51.9998V111.441H89.4961Z" fill="#F62D71"/>
<path d="M65.0168 111.754H52.5181C52.5181 101.756 56.4203 92.3499 63.5007 85.2799C70.5811 78.21 80.0007 74.3135 90.0143 74.3135V86.7938C76.2287 86.7938 65.0168 97.9892 65.0168 111.754Z" fill="#FF864A"/>
<path d="M427.366 298.667C468.697 298.667 502.202 265.153 502.202 223.811C502.202 182.469 468.697 148.955 427.366 148.955C386.035 148.955 352.53 182.469 352.53 223.811C352.53 265.153 386.035 298.667 427.366 298.667Z" fill="black"/>
</g>
<defs>
<clipPath id="clip0_6870_47102">
<rect width="653" height="149" fill="white"/>
</clipPath>
</defs>
</svg>
