<svg width="674" height="148" viewBox="0 0 674 148" fill="none" xmlns="http://www.w3.org/2000/svg">
<g clip-path="url(#clip0_6870_47525)">
<path d="M149 0H-1V150H149V0Z" fill="white"/>
<path d="M99.2487 150H149.25C149.25 109.933 133.646 72.2673 105.315 43.9348C76.9834 15.6024 39.3176 0.000488281 -0.749512 0.000488281V50.0005C54.3892 50.0005 99.2487 94.8572 99.2487 150Z" fill="#00C0A3"/>
<path d="M186.445 0.000488281H148.949V38.0005H186.445V0.000488281Z" fill="black"/>
<path d="M167.7 29.5856C173.708 29.5856 178.578 24.7224 178.578 18.7232C178.578 12.7241 173.708 7.86084 167.7 7.86084C161.692 7.86084 156.821 12.7241 156.821 18.7232C156.821 24.7224 161.692 29.5856 167.7 29.5856Z" fill="white"/>
<path d="M223.942 0.000488281H186.445V74.8876H223.942V0.000488281Z" fill="#B7ECEC"/>
<path d="M373.937 37.4419H223.947V149.77H373.937V37.4419Z" fill="#FF864A"/>
<path d="M523.927 0.000488281H448.93V74.8876H523.927V0.000488281Z" fill="#FFDBC1"/>
<path d="M261.443 0.000488281H223.947V37.4414H261.443V0.000488281Z" fill="black"/>
<path d="M223.947 37.4414C244.656 37.4414 261.443 20.6796 261.443 0.000488281H223.947V37.4414Z" fill="#FFBC4B"/>
<path d="M448.935 0.000488281H373.937V149.77H448.935V0.000488281Z" fill="#00A6BF"/>
<path d="M473.927 74.8876H448.93C448.93 54.8847 456.729 36.0784 470.895 21.9386C485.061 7.78833 503.895 0.000488281 523.927 0.000488281V24.9611C496.361 24.9611 473.932 47.357 473.932 74.8824L473.927 74.8876Z" fill="white"/>
<path d="M186.445 37.4419H148.949V75.4419H186.445V37.4419Z" fill="black"/>
<path d="M167.7 67.027C173.708 67.027 178.578 62.1638 178.578 56.1646C178.578 50.1655 173.708 45.3022 167.7 45.3022C161.692 45.3022 156.821 50.1655 156.821 56.1646C156.821 62.1638 161.692 67.027 167.7 67.027Z" fill="white"/>
<path d="M186.496 75H149V113H186.496V75Z" fill="black"/>
<path d="M167.642 104.562C173.65 104.562 178.521 99.6989 178.521 93.6998C178.521 87.7007 173.65 82.8374 167.642 82.8374C161.634 82.8374 156.764 87.7007 156.764 93.6998C156.764 99.6989 161.634 104.562 167.642 104.562Z" fill="white"/>
<path d="M186.388 112.422H148.892V150.422H186.388V112.422Z" fill="black"/>
<path d="M167.642 142.008C173.65 142.008 178.521 137.145 178.521 131.146C178.521 125.147 173.65 120.284 167.642 120.284C161.634 120.284 156.764 125.147 156.764 131.146C156.764 137.145 161.634 142.008 167.642 142.008Z" fill="white"/>
<path d="M298.939 0.000488281H261.443V37.4414H298.939V0.000488281Z" fill="black"/>
<path d="M261.443 37.4414C282.153 37.4414 298.939 20.6796 298.939 0.000488281H261.443V37.4414Z" fill="#FFBC4B"/>
<path d="M336.436 0.000488281H298.939V37.4414H336.436V0.000488281Z" fill="black"/>
<path d="M298.939 37.4414C319.649 37.4414 336.436 20.6796 336.436 0.000488281H298.939V37.4414Z" fill="#FFBC4B"/>
<path d="M373.932 0.000488281H336.436V37.4414H373.932V0.000488281Z" fill="black"/>
<path d="M336.436 37.4414C357.145 37.4414 373.932 20.6796 373.932 0.000488281H336.436V37.4414Z" fill="#FFBC4B"/>
<path d="M673.99 -0.999512H524V148.77H673.99V-0.999512Z" fill="#FFBC4B"/>
<path d="M599.066 148.775C640.486 148.775 674.063 115.247 674.063 73.8876C674.063 32.5286 640.486 -0.999512 599.066 -0.999512C557.645 -0.999512 524.068 32.5286 524.068 73.8876C524.068 115.247 557.645 148.775 599.066 148.775Z" fill="#FF5C35"/>
<path d="M748.988 -0.999512H673.99V36.4414H748.988V-0.999512Z" fill="#FFDBC1"/>
<path d="M711.486 23.9611V36.4414C701.473 36.4414 692.053 32.5449 684.973 25.475C677.893 18.4051 673.99 8.99931 673.99 -0.999512H686.489C686.489 12.7658 697.701 23.9611 711.486 23.9611Z" fill="#FF864A"/>
<path d="M748.988 111.329V36.4419L673.991 36.4419V111.329H748.988Z" fill="black"/>
<path d="M748.806 111.36C748.806 63.1604 722.214 36.6079 673.943 36.6079C673.943 84.8072 700.535 111.36 748.806 111.36Z" fill="#F62D71"/>
<path d="M711.486 111.329H673.99V148.77H711.486V111.329Z" fill="white"/>
</g>
<defs>
<clipPath id="clip0_6870_47525">
<rect width="674" height="148" fill="white"/>
</clipPath>
</defs>
</svg>
