<svg width="161" height="161" viewBox="0 0 161 161" fill="none" xmlns="http://www.w3.org/2000/svg">
<g clip-path="url(#clip0_7026_45746)">
<path d="M1.05504 53.6632L53.668 1.05029L159.944 107.327L107.332 159.94L1.05504 53.6632Z" fill="black"/>
<path d="M2.11262 53.6628L107.337 158.887L158.899 107.326L53.6628 2.11262L2.11262 53.6628ZM0 53.6628L53.6628 0L161 107.337L107.337 161L0 53.6628Z" fill="#00A6BF"/>
<path d="M46.9531 46.9536L114.046 114.047" stroke="#00A6BF" stroke-width="1.28" stroke-linecap="square" stroke-linejoin="round"/>
<path d="M0.743164 52.9199L0.743164 0.74292L52.9202 0.74292V52.9199H0.743164Z" fill="black"/>
<path d="M1.4858 52.177H52.177V1.4858L1.4858 1.4858L1.4858 52.177ZM0 53.6628L0 0L53.6628 0V53.6628H0Z" fill="#00A6BF"/>
<path d="M1.4858 26.8372C1.4858 40.813 12.8498 52.177 26.8256 52.177C40.8014 52.177 52.1654 40.813 52.1654 26.8372C52.1654 12.8614 40.813 1.4858 26.8372 1.4858L1.4858 1.4858L1.4858 26.8256M0 26.8256L0 0L26.8372 0C41.6603 0 53.6744 12.0141 53.6744 26.8372C53.6744 41.6603 41.6603 53.6744 26.8372 53.6744C12.0141 53.6628 0 41.6487 0 26.8372L0 26.8256Z" fill="#00A6BF"/>
<path d="M108.08 160.257V108.08H160.257V160.257H108.08Z" fill="black"/>
<path d="M108.823 159.514H159.514V108.823H108.823V159.514ZM107.337 161V107.337H161V161H107.337Z" fill="#00A6BF"/>
<path d="M108.823 134.163C108.823 148.139 120.187 159.503 134.163 159.503C148.138 159.503 159.502 148.139 159.502 134.163C159.502 120.187 148.138 108.823 134.163 108.823H108.823V134.163ZM107.337 134.163V107.326H134.174C148.997 107.326 161.011 119.34 161.011 134.163C161.011 148.986 148.997 161 134.174 161C119.351 161 107.337 148.986 107.337 134.163Z" fill="#00A6BF"/>
</g>
<defs>
<clipPath id="clip0_7026_45746">
<rect width="161" height="161" fill="white" transform="matrix(0 1 1 0 0 0)"/>
</clipPath>
</defs>
</svg>
