<svg width="54" height="54" viewBox="0 0 54 54" fill="none" xmlns="http://www.w3.org/2000/svg">
<g clip-path="url(#clip0_7026_45762)">
<path d="M53.2406 0.747314H0.74707V53.2408H53.2406V0.747314Z" fill="black"/>
<path d="M52.4935 1.49481V52.4935H1.49481V1.49481H52.4935ZM53.9883 0H0V54H54V0H53.9883Z" fill="#F62D71"/>
<path d="M0.758789 53.2409C0.94564 39.2971 6.46943 26.2175 16.3492 16.3378C26.2289 6.46967 39.2968 0.945884 53.2406 0.759033V17.2603C33.5745 17.6574 17.6455 33.5865 17.2484 53.2525H0.758789V53.2409Z" fill="black"/>
<path d="M52.4935 1.51817V16.5247C33.0026 17.2954 17.2954 33.0026 16.5247 52.4935H1.51817C1.89187 39.0285 7.31055 26.4394 16.875 16.875C26.4394 7.31055 39.0402 1.89187 52.4935 1.51817ZM53.9883 0C39.5657 0 26.0074 5.61721 15.8123 15.8123C5.61721 26.019 0 39.5774 0 54H17.9961C17.9961 34.1471 34.1471 18.0078 53.9883 18.0078V0Z" fill="#F62D71"/>
<path d="M0.758789 53.2409C0.94564 39.2971 6.46943 26.2175 16.3492 16.3378C26.2289 6.46967 39.2968 0.945884 53.2406 0.759033V17.2603C33.5745 17.6574 17.6455 33.5865 17.2484 53.2525H0.758789V53.2409Z" fill="black"/>
<path d="M52.4935 1.51817V16.5247C33.0026 17.2954 17.2954 33.0026 16.5247 52.4935H1.51817C1.89187 39.0285 7.31055 26.4394 16.875 16.875C26.4394 7.31055 39.0402 1.89187 52.4935 1.51817ZM53.9883 0C39.5657 0 26.0074 5.61721 15.8123 15.8123C5.61721 26.019 0 39.5774 0 54H17.9961C17.9961 34.1471 34.1471 18.0078 53.9883 18.0078V0Z" fill="#F62D71"/>
</g>
<defs>
<clipPath id="clip0_7026_45762">
<rect width="54" height="54" fill="white"/>
</clipPath>
</defs>
</svg>
